<svg xmlns="http://www.w3.org/2000/svg" viewBox="0 -235 1400 330" role="img" aria-labelledby="went-hiking-logo-title">
  <title id="went-hiking-logo-title">Went Hiking</title>
  <!-- Legacy Valentines font data: Copyright (c) 2011, Christy. All rights reserved. Trademark (tm) of Christy. -->
  <g fill="currentColor">
    <path transform="translate(0 0)" d="M27 -151 c-13 -21 0 -80 -27 -65 c-2 18 8 27 6 47 c5 19 11 52 12 80 c8 14 1 50 12 68 c-1 9 0 15 3 21 c24 4 24 -18 38 -27 l38 -71 c11 24 11 68 27 89 c25 2 28 -23 42 -35 c1 -20 17 -27 17 -48 c19 -29 26 -70 45 -100 c5 -14 -14 -15 -21 -9 c-1 19 -15 29 -15 50 c-6 20 -22 31 -23 56 c-10 19 -18 40 -30 57 c-18 1 -11 -34 -21 -48 c-2 -17 -9 -33 -6 -56 c-4 -7 -15 -7 -23 -3 c-7 16 -6 44 -18 56 c-5 24 -22 42 -36 59 c-12 -24 -13 -67 -17 -103 c-5 -2 -3 -11 -3 -18"/>
    <path transform="translate(251 0)" d="M31 -83 c-8 -8 12 -27 20 -23 c-1 13 -11 17 -20 23 Z M74 -123 c-43 -21 -68 21 -71 66 c-9 20 1 52 23 54 c23 9 57 -1 74 -11 c6 -20 -17 -21 -26 -9 c-26 7 -58 1 -57 -29 c19 -23 63 -23 57 -71"/>
    <path transform="translate(362 0)" d="M139 -91 c-2 -40 -37 -41 -73 -37 c-7 8 -24 7 -29 19 c-11 -3 -7 18 -15 7 c1 -9 -14 -22 -22 -11 l0 106 c5 8 20 9 26 0 c-7 -32 -6 -84 25 -91 c14 -17 56 -20 66 0 c9 18 3 53 0 76 c5 8 16 25 29 15 c-5 -27 -3 -49 -3 -81"/>
    <path transform="translate(520 0)" d="M0 -86 c15 3 29 -7 36 0 c1 23 6 46 4 76 c13 4 37 13 52 7 c8 7 21 -1 30 -4 c6 -19 -19 -11 -39 -13 c-9 -1 -21 0 -20 -13 c-9 -8 -2 -34 -7 -53 c5 -17 49 12 43 -26 c-18 -4 -31 10 -43 3 c-2 -23 3 -40 3 -63 c-5 -2 -17 -6 -23 0 c-2 21 4 50 -3 66 c-17 1 -38 -6 -33 20"/>
    <path transform="translate(771 0)" d="M20 -196 c11 -11 -5 -32 -17 -20 c-4 8 -4 22 3 28 c-3 44 -3 103 -3 157 c-9 10 0 33 17 20 c-2 -15 4 -36 -3 -46 c8 -8 -13 -37 14 -37 c17 -6 50 -4 71 -3 c3 27 -9 55 3 77 c-3 14 11 28 20 14 c2 -20 -15 -35 -6 -57 c-3 -20 6 -42 0 -56 c7 -24 2 -54 6 -88 c-7 -4 -13 -3 -17 5 c-2 29 5 65 -6 86 c-19 7 -51 5 -79 5 c-8 -21 0 -58 -3 -85"/>
    <path transform="translate(907 0)" d="M22 -78 c-5 -8 -5 -24 -19 -14 c-7 19 12 57 -3 78 c-4 16 15 18 22 8 l0 -72 Z M22 -131 c10 -16 -9 -30 -22 -17 c-4 16 8 25 22 17"/>
    <path transform="translate(943 0)" d="M25 -153 c10 -10 -1 -32 -14 -19 c-4 29 -4 66 -5 102 c-4 10 -10 39 -3 56 l14 0 c8 -11 -6 -42 14 -47 c11 13 26 22 33 39 c14 5 27 36 47 16 c3 -17 -16 -10 -22 -22 c-18 -9 -26 -30 -39 -44 c2 -17 20 -22 28 -34 c7 -1 9 -7 19 -5 c2 -8 9 -16 3 -25 c-6 -2 -9 -4 -17 0 c-10 19 -32 27 -44 44 c-7 -1 -11 13 -17 6 c1 -20 5 -41 3 -67"/>
    <path transform="translate(1066 0)" d="M22 -78 c-5 -8 -5 -24 -19 -14 c-7 19 12 57 -3 78 c-4 16 15 18 22 8 l0 -72 Z M22 -131 c10 -16 -9 -30 -22 -17 c-4 16 8 25 22 17"/>
    <path transform="translate(1102 0)" d="M139 -91 c-2 -40 -37 -41 -73 -37 c-7 8 -24 7 -29 19 c-11 -3 -7 18 -15 7 c1 -9 -14 -22 -22 -11 l0 106 c5 8 20 9 26 0 c-7 -32 -6 -84 25 -91 c14 -17 56 -20 66 0 c9 18 3 53 0 76 c5 8 16 25 29 15 c-5 -27 -3 -49 -3 -81"/>
    <path transform="translate(1260 0)" d="M43 -88 c5 -14 21 -19 36 -22 c5 8 27 19 14 32 c-3 19 -18 28 -28 40 c-11 5 -37 13 -40 -7 c-7 -11 10 -34 18 -43 Z M122 -74 c24 -39 -35 -71 -68 -50 c-14 9 -31 17 -36 36 c-7 9 -14 20 -14 36 c-14 25 32 58 61 35 c9 -7 22 -11 28 -21 c13 8 3 36 11 54 c-10 6 2 34 -18 36 c-14 9 -30 17 -57 14 c-4 3 -18 8 -8 18 c22 -2 45 12 58 -7 c20 -10 47 -15 43 -50 c11 -23 -5 -63 0 -101"/>
  </g>
</svg>
