<svg xmlns="http://www.w3.org/2000/svg" width="324" height="106" viewBox="0 0 323.524191 105.947413" preserveAspectRatio="xMidYMid meet" role="img" aria-label="Went Hiking">
<g transform="translate(-30.432198,118.947413) scale(0.100000,-0.100000)"
fill="#000000" stroke="none">
<path d="M2229 1173 c-11 -12 -14 -57 -15 -184 0 -202 4 -195 -110 -204 -133
-11 -134 -10 -134 127 -1 134 -10 183 -42 215 -49 49 -91 -19 -62 -100 26 -73
10 -242 -27 -285 -39 -44 -38 -82 1 -115 38 -33 50 -64 50 -137 0 -65 17 -93
54 -88 20 3 21 8 17 86 -3 81 -3 82 21 82 23 0 135 -60 193 -104 127 -97 179
-64 131 84 -32 99 -32 105 -4 124 61 43 98 2 98 -105 0 -110 17 -128 115 -124
68 3 85 12 85 46 0 28 12 29 42 4 39 -33 71 -40 108 -25 18 7 47 10 73 6 28
-4 55 -2 78 8 23 9 40 11 50 5 7 -5 24 -9 36 -9 22 0 31 7 57 45 13 18 15 18
50 -13 20 -18 45 -32 56 -32 32 0 32 -18 -2 -41 -172 -121 -131 -309 67 -309
114 0 164 51 175 178 8 82 15 92 73 92 62 0 99 56 61 94 -10 10 -33 16 -64 16
-86 0 -100 61 -42 173 19 36 23 57 18 85 -13 81 -162 150 -182 84 -3 -9 -13
-33 -21 -52 -9 -19 -21 -60 -27 -90 -10 -49 -55 -91 -56 -53 -4 128 -8 172
-18 191 -21 37 -82 24 -82 -18 0 -39 -28 -57 -49 -31 -11 15 -24 22 -34 18
-22 -8 -59 -84 -52 -106 8 -25 -4 -51 -22 -51 -12 0 -14 8 -10 37 17 102 -45
188 -79 108 -21 -50 -50 -37 -75 33 -13 37 -47 50 -86 33 -46 -21 -58 3 -38
80 26 101 -6 239 -47 202 -10 -9 -18 -29 -18 -44 0 -63 -26 -76 -75 -37 l-28
22 -18 -23 c-21 -26 -25 -81 -7 -99 17 -17 63 -15 78 3 34 40 43 19 37 -82 -8
-111 -19 -131 -49 -90 -22 30 -58 36 -78 12 -7 -9 -29 -15 -51 -15 -52 0 -65
25 -51 94 34 160 35 242 1 282 -16 19 -54 18 -70 -3z m1107 -465 c-4 -18 -10
-48 -13 -66 -8 -46 -73 -71 -73 -28 0 8 6 19 14 25 7 6 16 29 20 50 6 38 15
49 45 50 10 1 12 -7 7 -31z m-565 -38 c-4 -62 -16 -80 -52 -80 -35 0 -48 23
-26 48 8 9 22 32 31 50 26 50 52 40 47 -18z m-566 -30 c0 -44 -22 -50 -67 -18
-18 13 -35 24 -38 26 -14 10 40 33 70 30 33 -3 35 -5 35 -38z m1113 -262 c13
-13 15 -49 6 -85 -20 -74 -194 -84 -194 -12 0 50 155 130 188 97z M846 1104
c-11 -28 -6 -68 15 -150 30 -109 33 -528 5 -582 -56 -108 -132 28 -156 276 -5
54 -14 112 -20 128 -7 18 -9 53 -5 91 5 49 3 67 -10 87 -41 62 -97 -5 -76 -90
6 -24 11 -72 11 -107 0 -36 7 -102 16 -148 26 -135 -1 -329 -46 -329 -82 0
-149 230 -154 525 -2 179 -36 262 -90 221 -19 -14 -38 -64 -30 -78 4 -6 11
-61 16 -122 36 -448 120 -686 244 -686 58 0 114 53 114 108 0 35 15 33 66 -5
85 -65 159 -36 193 77 29 100 47 115 63 53 20 -77 110 -120 155 -75 43 42 52
46 72 28 38 -34 83 -13 104 49 2 5 20 -2 40 -18 44 -34 70 -34 96 -2 18 24 24
25 71 19 74 -10 86 9 121 182 23 117 20 187 -9 182 -20 -4 -40 -61 -47 -139
-13 -129 -59 -116 -69 19 -4 48 -9 116 -12 152 l-5 66 36 17 c20 10 59 17 91
17 68 0 124 22 124 48 0 36 -25 45 -105 38 -92 -8 -106 -1 -134 64 -32 75 -72
68 -84 -15 -8 -48 -28 -65 -77 -65 -43 0 -60 -14 -60 -51 0 -38 22 -53 68 -45
51 8 69 -8 83 -69 24 -111 23 -182 -2 -235 -42 -88 -54 -70 -65 86 -12 186
-68 226 -114 82 -13 -43 -24 -47 -40 -18 -16 29 -25 25 -55 -26 -32 -55 -46
-53 -64 12 -22 80 -78 104 -121 52 -30 -37 -42 -11 -50 109 -4 60 -12 118 -19
130 -6 12 -11 35 -11 52 0 72 -55 135 -74 85z m308 -600 c12 -30 6 -64 -15
-85 -37 -37 -43 0 -14 89 6 17 22 15 29 -4z M2810 1061 c-25 -47 -2 -101 44
-101 48 0 64 63 24 100 -27 25 -54 26 -68 1z"/>
</g>
</svg>
